<svg width="80" height="82" viewBox="0 0 80 82" fill="none" xmlns="http://www.w3.org/2000/svg">
<path d="M7.4375 69.8635V69.6135H7.1875H5.45578C2.58654 69.6135 0.25 67.2689 0.25 64.3853V8.59832C0.25 4.41002 3.64372 1.00391 7.8125 1.00391H72.1875C76.3563 1.00391 79.75 4.41002 79.75 8.59832V64.3853C79.75 67.2689 77.4135 69.6135 74.5442 69.6135H72.8125H72.5625V69.8635V77.9429V78.1929H72.8125H78.4375C79.1614 78.1929 79.75 78.7826 79.75 79.5118C79.75 80.2411 79.1614 80.8307 78.4375 80.8307H1.5625C0.838579 80.8307 0.25 80.2411 0.25 79.5118C0.25 78.7826 0.838578 78.1929 1.5625 78.1929H7.1875H7.4375V77.9429V69.8635ZM76.875 12.2999H77.125V12.0499V8.59832C77.125 5.86596 74.9112 3.64167 72.1875 3.64167H7.8125C5.08878 3.64167 2.875 5.86596 2.875 8.59832V12.0579V12.3342L3.14997 12.3066C3.1938 12.3022 3.23779 12.2999 3.28187 12.2999H76.875ZM17.1875 78.1929H17.4375V77.9429V63.823V63.573H17.1875H10.3125H10.0625V63.823V77.9429V78.1929H10.3125H17.1875ZM34.6875 78.1929H34.9375V77.9429V46.4762V46.2262H34.6875H27.8125H27.5625V46.4762V77.9429V78.1929H27.8125H34.6875ZM52.1875 78.1929H52.4375V77.9429V59.7439V59.4939H52.1875H45.3125H45.0625V59.7439V77.9429V78.1929H45.3125H52.1875ZM62.8125 43.8835H62.5625V44.1335V50.4873C62.5625 51.2166 61.9739 51.8062 61.25 51.8062C60.5261 51.8062 59.9375 51.2166 59.9375 50.4873V42.5646C59.9375 41.8354 60.5261 41.2457 61.25 41.2457H71.25C71.9739 41.2457 72.5625 41.8354 72.5625 42.5646V66.7257V66.9757H72.8125H74.5442C75.9684 66.9757 77.125 65.8129 77.125 64.3853V15.1876V14.9376H76.875H3.28187C3.23779 14.9376 3.1938 14.9353 3.14997 14.9309L2.875 14.9033V15.1796V64.3853C2.875 65.8129 4.03142 66.9757 5.45578 66.9757H7.1875H7.4375V66.7257V62.2541C7.4375 61.5249 8.02608 60.9352 8.75 60.9352H18.75C19.4739 60.9352 20.0625 61.5249 20.0625 62.2541V77.9429V78.1929H20.3125H24.6875H24.9375V77.9429V44.9073C24.9375 44.178 25.5261 43.5884 26.25 43.5884H36.25C36.9739 43.5884 37.5625 44.178 37.5625 44.9073V77.9429V78.1929H37.8125H42.1875H42.4375V77.9429V58.175C42.4375 57.4458 43.0261 56.8561 43.75 56.8561H53.75C54.4739 56.8561 55.0625 57.4458 55.0625 58.175V77.9429V78.1929H55.3125H59.6875H59.9375V77.9429V61.0382C59.9375 60.309 60.5261 59.7193 61.25 59.7193C61.9739 59.7193 62.5625 60.309 62.5625 61.0382V77.9429V78.1929H62.8125H69.6875H69.9375V77.9429V44.1335V43.8835H69.6875H62.8125Z" fill="#474749" stroke="white" stroke-width="0.5"/>
<path d="M34.6977 6.65186H70C70.7239 6.65186 71.3125 7.24148 71.3125 7.9707C71.3125 8.69992 70.7239 9.28955 70 9.28955H34.6977C33.9737 9.28955 33.3852 8.69992 33.3852 7.9707C33.3852 7.24148 33.9737 6.65186 34.6977 6.65186Z" fill="#474749" stroke="white" stroke-width="0.5"/>
<path d="M15.3224 7.03795L15.3225 7.0379C15.5663 6.79295 15.9057 6.65186 16.25 6.65186C16.5942 6.65186 16.9337 6.79307 17.1776 7.03795C17.4215 7.28285 17.5625 7.62416 17.5625 7.9707C17.5625 8.31725 17.4215 8.65853 17.1776 8.90326L17.1775 8.90335C16.9336 9.14834 16.5942 9.28955 16.25 9.28955C15.9058 9.28955 15.5664 9.14834 15.3225 8.90335L15.3224 8.90326C15.0785 8.65853 14.9375 8.31725 14.9375 7.9707C14.9375 7.62416 15.0785 7.28285 15.3224 7.03795Z" fill="#474749" stroke="white" stroke-width="0.5"/>
<path d="M9.07245 7.03795L9.07249 7.0379C9.31632 6.79295 9.65573 6.65186 10 6.65186C10.3442 6.65186 10.6837 6.79307 10.9276 7.03795C11.1715 7.28285 11.3125 7.62416 11.3125 7.9707C11.3125 8.31725 11.1715 8.65853 10.9276 8.90326L10.9275 8.90335C10.6836 9.14834 10.3442 9.28955 10 9.28955C9.65579 9.28955 9.31636 9.14834 9.07249 8.90335L9.0724 8.90326C8.82854 8.65853 8.6875 8.31725 8.6875 7.9707C8.6875 7.62416 8.82853 7.28285 9.07245 7.03795Z" fill="#474749" stroke="white" stroke-width="0.5"/>
<path d="M21.5724 7.03795L21.5725 7.0379C21.8163 6.79295 22.1557 6.65186 22.5 6.65186C22.8456 6.65186 23.1836 6.79298 23.4276 7.03795C23.6715 7.28285 23.8125 7.62416 23.8125 7.9707C23.8125 8.31725 23.6715 8.65853 23.4276 8.90326L23.4275 8.90335C23.1836 9.14834 22.8442 9.28955 22.5 9.28955C22.1558 9.28955 21.8164 9.14834 21.5725 8.90335L21.5724 8.90326C21.3285 8.65853 21.1875 8.31725 21.1875 7.9707C21.1875 7.62416 21.3285 7.28285 21.5724 7.03795Z" fill="#474749" stroke="white" stroke-width="0.5"/>
<path d="M62.1776 55.1462L62.1771 55.1457C61.9338 54.9002 61.5948 54.7601 61.25 54.7601C60.9053 54.7601 60.5662 54.9003 60.3229 55.1458L60.3224 55.1462C60.0785 55.3911 59.9375 55.7324 59.9375 56.079C59.9375 56.4255 60.0785 56.7668 60.3224 57.0117L62.1776 55.1462ZM62.1776 55.1462C62.4216 55.3912 62.5625 55.731 62.5625 56.079C62.5625 56.4255 62.4215 56.7668 62.1776 57.0117C61.9337 57.2566 61.5942 57.3978 61.25 57.3978C60.9059 57.3978 60.5664 57.2565 60.3224 57.0117L62.1776 55.1462Z" fill="#474749" stroke="white" stroke-width="0.5"/>
<path d="M61.8757 31.2187L62.0258 31.068L61.9011 30.8957C61.2564 30.0053 60.875 28.9116 60.875 27.7291C60.875 24.7519 63.2873 22.3312 66.25 22.3312C69.2127 22.3312 71.625 24.7519 71.625 27.7291C71.625 30.7064 69.2127 33.1271 66.25 33.1271C65.5543 33.1271 64.8899 32.9923 64.2788 32.7492L64.1256 32.6882L64.0093 32.805L53.3522 43.5056L53.2199 43.6385L53.3104 43.8027C53.7365 44.5756 53.9798 45.4633 53.9798 46.4079C53.9798 49.3852 51.5675 51.8059 48.6048 51.8059C45.6422 51.8059 43.2298 49.3852 43.2298 46.4079C43.2298 45.3711 43.5229 44.4028 44.0293 43.5795L44.1326 43.4117L43.9935 43.2721L33.2623 32.4972L33.1289 32.3633L32.9637 32.4551C32.1942 32.8827 31.3105 33.127 30.3705 33.127C29.5271 33.127 28.7291 32.9304 28.0181 32.5813L27.8573 32.5023L27.7308 32.6293L18.3936 42.0046L18.2613 42.1375L18.3518 42.3017C18.7779 43.0747 19.0212 43.9624 19.0212 44.907C19.0212 47.8843 16.6089 50.305 13.6462 50.305C10.6836 50.305 8.27124 47.8843 8.27124 44.907C8.27124 41.9297 10.6836 39.509 13.6462 39.509C14.5863 39.509 15.47 39.7532 16.2395 40.1809L16.4047 40.2727L16.5381 40.1388L25.7651 30.8742L25.9044 30.7343L25.8006 30.5664C25.2908 29.7413 24.9955 28.7697 24.9955 27.7291C24.9955 24.7519 27.4078 22.3312 30.3705 22.3312C33.3332 22.3312 35.7455 24.7519 35.7455 27.7291C35.7455 28.6738 35.5021 29.5615 35.0761 30.3344L34.9855 30.4986L35.1179 30.6315L45.9552 41.5131L46.0819 41.6403L46.243 41.5609C46.9563 41.2088 47.7576 41.0103 48.6048 41.0103C49.545 41.0103 50.4287 41.2545 51.1982 41.6821L51.3635 41.7739L51.4968 41.64L61.8757 31.2187ZM10.8964 44.9073C10.8964 46.4285 12.1289 47.6675 13.6464 47.6675C15.1639 47.6675 16.3964 46.4285 16.3964 44.9073C16.3964 43.3861 15.1639 42.1471 13.6464 42.1471C12.1289 42.1471 10.8964 43.3861 10.8964 44.9073ZM27.6206 27.7291C27.6206 29.2503 28.8532 30.4894 30.3706 30.4894C31.8881 30.4894 33.1206 29.2503 33.1206 27.7291C33.1206 26.208 31.8881 24.9689 30.3706 24.9689C28.8532 24.9689 27.6206 26.208 27.6206 27.7291ZM45.855 46.4082C45.855 47.9294 47.0875 49.1685 48.605 49.1685C50.1225 49.1685 51.355 47.9294 51.355 46.4082C51.355 44.8871 50.1225 43.648 48.605 43.648C47.0875 43.648 45.855 44.8871 45.855 46.4082ZM63.5 27.7291C63.5 29.2503 64.7325 30.4894 66.25 30.4894C67.7675 30.4894 69 29.2503 69 27.7291C69 26.208 67.7675 24.9689 66.25 24.9689C64.7325 24.9689 63.5 26.208 63.5 27.7291Z" fill="#474749" stroke="white" stroke-width="0.5"/>
<path d="M21.1427 21.1613L21.1428 21.1612C21.3866 20.9163 21.726 20.775 22.0719 20.775C22.4155 20.775 22.7537 20.916 22.9997 21.1615C23.2434 21.4063 23.3844 21.7475 23.3844 22.0939C23.3844 22.4404 23.2434 22.7816 22.9996 23.0265C22.7538 23.2721 22.4157 23.4128 22.0719 23.4128C21.7264 23.4128 21.3883 23.2719 21.1425 23.0265C20.8992 22.782 20.7594 22.441 20.7594 22.0939C20.7594 21.7467 20.8993 21.4056 21.1427 21.1613Z" fill="#474749" stroke="white" stroke-width="0.5"/>
<path d="M8.75 20.7751H16.25C16.9739 20.7751 17.5625 21.3648 17.5625 22.0941C17.5625 22.8233 16.9739 23.413 16.25 23.413H8.75C8.02608 23.413 7.4375 22.8233 7.4375 22.0941C7.4375 21.3648 8.02608 20.7751 8.75 20.7751Z" fill="#474749" stroke="white" stroke-width="0.5"/>
<path d="M8.75 28.3057H16.25C16.9739 28.3057 17.5625 28.8953 17.5625 29.6246C17.5625 30.3539 16.9739 30.9436 16.25 30.9436H8.75C8.02609 30.9436 7.4375 30.3539 7.4375 29.6246C7.4375 28.8953 8.02609 28.3057 8.75 28.3057Z" fill="#474749" stroke="white" stroke-width="0.5"/>
</svg>
